<svg width="1920" height="1080" viewBox="0 0 1920 1080" fill="none" xmlns="http://www.w3.org/2000/svg">
  <defs>
    <linearGradient id="bgGradient" x1="0%" y1="0%" x2="100%" y2="100%">
      <stop offset="0%" style="stop-color:#f0f9ff;stop-opacity:1" />
      <stop offset="50%" style="stop-color:#e0f2fe;stop-opacity:1" />
      <stop offset="100%" style="stop-color:#fdf4ff;stop-opacity:1" />
    </linearGradient>
    <pattern id="healthPattern" x="0" y="0" width="100" height="100" patternUnits="userSpaceOnUse">
      <!-- Círculos de salud -->
      <circle cx="20" cy="20" r="3" fill="#0ea5e9" opacity="0.1"/>
      <circle cx="80" cy="30" r="2" fill="#d946ef" opacity="0.1"/>
      <circle cx="40" cy="70" r="2.5" fill="#0ea5e9" opacity="0.1"/>
      <circle cx="90" cy="80" r="1.5" fill="#d946ef" opacity="0.1"/>
      
      <!-- Símbolos de salud -->
      <path d="M15 45 L25 45 L20 35 Z" fill="#0ea5e9" opacity="0.05"/>
      <path d="M75 55 L85 55 L80 65 Z" fill="#d946ef" opacity="0.05"/>
      
      <!-- Líneas decorativas -->
      <line x1="10" y1="10" x2="30" y2="10" stroke="#0ea5e9" stroke-width="0.5" opacity="0.1"/>
      <line x1="70" y1="90" x2="90" y2="90" stroke="#d946ef" stroke-width="0.5" opacity="0.1"/>
    </pattern>
  </defs>
  
  <!-- Fondo principal -->
  <rect width="1920" height="1080" fill="url(#bgGradient)"/>
  
  <!-- Patrón de salud -->
  <rect width="1920" height="1080" fill="url(#healthPattern)"/>
  
  <!-- Elementos decorativos grandes -->
  <circle cx="200" cy="200" r="150" fill="#0ea5e9" opacity="0.03"/>
  <circle cx="1720" cy="300" r="120" fill="#d946ef" opacity="0.03"/>
  <circle cx="400" cy="800" r="100" fill="#0ea5e9" opacity="0.03"/>
  <circle cx="1600" cy="900" r="80" fill="#d946ef" opacity="0.03"/>
  
  <!-- Símbolos de salud grandes -->
  <g opacity="0.05">
    <!-- Cruz médica -->
    <rect x="150" y="400" width="8" height="60" fill="#0ea5e9"/>
    <rect x="120" y="430" width="60" height="8" fill="#0ea5e9"/>
    
    <!-- Corazón -->
    <path d="M1700 600 C1700 550 1650 500 1600 500 C1550 500 1500 550 1500 600 C1500 650 1600 700 1600 700 C1600 700 1700 650 1700 600 Z" fill="#d946ef"/>
    
    <!-- Hoja -->
    <path d="M300 700 Q350 650 400 700 Q350 750 300 700 Z" fill="#0ea5e9"/>
    
    <!-- Estrella -->
    <path d="M1800 200 L1820 220 L1840 200 L1820 180 Z" fill="#d946ef"/>
  </g>
  
  <!-- Líneas de conexión sutiles -->
  <g stroke="#0ea5e9" stroke-width="1" opacity="0.02">
    <line x1="0" y1="200" x2="400" y2="300"/>
    <line x1="1520" y1="0" x2="1920" y2="200"/>
    <line x1="0" y1="800" x2="300" y2="900"/>
    <line x1="1620" y1="800" x2="1920" y2="900"/>
  </g>
  
  <!-- Puntos de conexión -->
  <circle cx="400" cy="300" r="3" fill="#0ea5e9" opacity="0.1"/>
  <circle cx="1520" cy="200" r="3" fill="#d946ef" opacity="0.1"/>
  <circle cx="300" cy="900" r="3" fill="#0ea5e9" opacity="0.1"/>
  <circle cx="1620" cy="900" r="3" fill="#d946ef" opacity="0.1"/>
</svg>




